# xmcd CD database file
#
# Track frame offsets:
#	150
#	14059
#	34819
#	50900
#	68307
#	85977
#	107776
#	133885
#	155110
#	181125
#	202511
#	216689
#	235271
#	253029
#	268686
#
# Disc length: 3807 seconds
#
# Revision: 0
# Processed by: cddbd v1.5.1PL0 Copyright (c) Steve Scherf et al.
# Submitted via: CDex 1.51
#
DISCID=de0edd0f
DTITLE=Bobby Hackett - At The Jazz Band Ball
DYEAR=2002
DGENRE=Jazz
TTITLE0=Muskrat Ramble
TTITLE1=Tin Roof Blues
TTITLE2=Please Don't Talk About Me When I'm Gone
TTITLE3=There's Dancer In Your Eyes, Cherie
TTITLE4=Sunday
TTITLE5=Skeleton Jangle
TTITLE6=Basin Street Blues
TTITLE7=Perdido
TTITLE8=Wolverine Blues
TTITLE9=Solitaire
TTITLE10=Jitterburg Waltz
TTITLE11=When The Saints Go Marching In
TTITLE12=Sugar
TTITLE13=At The Jazz Band Ball
TTITLE14=Original Dixieland One Step
EXTD=YEAR: 2002
EXTT0=
EXTT1=
EXTT2=
EXTT3=
EXTT4=
EXTT5=
EXTT6=
EXTT7=
EXTT8=
EXTT9=
EXTT10=
EXTT11=
EXTT12=
EXTT13=
EXTT14=
PLAYORDER=
